# xmcd CD database file
#
# Track frame offsets:
#	150
#	28142
#	44917
#	72095
#	101125
#	127607
#	153480
#	170762
#	193275
#	221012
#	245127
#	281332
#
# Disc length: 4091 seconds
#
# Revision: 0
# Processed by: cddbd v1.4PL0 Copyright (c) Steve Scherf et al.
# Submitted via: CDex 1.50
#
DISCID=ba0ff90c
DTITLE=Antoine Hervé - Inside
DYEAR=2003
DGENRE=Jazz
TTITLE0=chimère
TTITLE1=inside
TTITLE2=les pensionnaires
TTITLE3=au gré des lubies
TTITLE4=just live to tell the tale
TTITLE5=smoke
TTITLE6=les muppets
TTITLE7=africa
TTITLE8=esperanza
TTITLE9=rag collection
TTITLE10=rainfalls
TTITLE11=jazz at the inharmonic
EXTD=YEAR: 2003
EXTT0=
EXTT1=
EXTT2=
EXTT3=
EXTT4=
EXTT5=
EXTT6=
EXTT7=
EXTT8=
EXTT9=
EXTT10=
EXTT11=
PLAYORDER=
